<svg xmlns="http://www.w3.org/2000/svg" width="87.242" height="87.379" viewBox="0 0 87.242 87.379">
  <g id="best-price" transform="translate(0.551 0.316)">
    <path id="Path_468" data-name="Path 468" d="M-140.718-.55a8.674,8.674,0,0,1,5.4,3.7c2.041,3.483,1.249,7.8.723,11.585q-.074.552-.147,1.1-.177,1.33-.363,2.658l.287,0q3.471-.023,6.941-.033,1.678-.005,3.357-.016,1.621-.011,3.242-.013.617,0,1.235-.007c.578,0,1.156-.006,1.734-.005l.512-.007a5.665,5.665,0,0,1,4.029,1.5,6.171,6.171,0,0,1,1.525,4.69,5.048,5.048,0,0,1-1.839,3.464c-.2.16-.407.317-.616.468l.18.385.234.507.233.5a5.937,5.937,0,0,1,.118,4.164,7.127,7.127,0,0,1-1.786,2.434l-.34.34.18.348.234.46.233.454a5.727,5.727,0,0,1,.118,4.126,7.128,7.128,0,0,1-1.786,2.434l-.34.34.18.348.235.46.233.454a5.767,5.767,0,0,1,.128,4.116,5.87,5.87,0,0,1-3.287,3.281,9.144,9.144,0,0,1-2.993.313l-.721.01c-.649.009-1.3.012-1.947.014l-1.228.007q-2.159.015-4.318.016-1.765,0-3.53.024c-12.664.159-12.664.159-18.293-2.241l-.056.36-.082.469-.078.466c-.124.405-.124.405-.634.745-.479.035-.942.05-1.421.049l-.439,0q-.72,0-1.439,0l-1,0q-1.048,0-2.1,0-1.344,0-2.687.01-1.032.006-2.064,0-.5,0-.991,0c-.462,0-.923,0-1.385,0l-.414.006a2.138,2.138,0,0,1-1.4-.355,2.391,2.391,0,0,1-.391-1.679c0-.128,0-.256,0-.388,0-.429,0-.857,0-1.286q0-.461,0-.922,0-1.252,0-2.5,0-1.31,0-2.619,0-2.2,0-4.4.005-2.544,0-5.088,0-2.183,0-4.365,0-1.3,0-2.608,0-1.226,0-2.452,0-.45,0-.9c0-.409,0-.818,0-1.228,0-.119,0-.239,0-.361a1.9,1.9,0,0,1,.4-1.317,2.771,2.771,0,0,1,1.815-.355l.439,0c.479,0,.958,0,1.437,0l1,0q1.046,0,2.093,0,1.341.006,2.683,0,1.031,0,2.062,0l.989,0c.461,0,.922,0,1.382,0l.413,0a2.069,2.069,0,0,1,1.453.413,1.461,1.461,0,0,1,.3,1.167l-.019.412-.024.311a9.531,9.531,0,0,0,4.356-5.536l.125-.439q.2-.718.405-1.437l.287-1.009q.378-1.332.753-2.664.6-2.116,1.2-4.23.207-.73.412-1.46.393-1.392.8-2.781l.154-.534q.235-.812.476-1.623l.147-.509.141-.471.122-.416C-143.219-.968-141.9-.659-140.718-.55Zm-.51,3.061c-.7,2.243-1.362,4.5-2,6.757l-.377,1.33c-.522,1.838-.522,1.838-1.04,3.677q-.32,1.14-.646,2.279-.122.428-.241.857c-.912,3.27-2.327,6.412-5.4,8.191a10.006,10.006,0,0,1-2.195.886V48.765c6.923,2.118,6.923,2.118,13.763,2.639.616-.014,1.233-.013,1.849-.014q1.537-.006,3.074-.036c1.442-.027,2.883-.037,4.325-.044q1.519-.008,3.037-.026l.726-.007q1.184-.011,2.368-.034l.594-.006a5.06,5.06,0,0,0,3.361-.847,2.98,2.98,0,0,0,.792-2.382,2.3,2.3,0,0,0-.727-1.452,4.632,4.632,0,0,0-3.275-.886l-.822-.015q-.644-.01-1.289-.018c-.416,0-.832-.013-1.248-.021l-.39,0c-.887-.021-.887-.021-1.305-.319a1.431,1.431,0,0,1-.238-.951l0-.351a1.225,1.225,0,0,1,.578-.84,2.584,2.584,0,0,1,.72-.065l.439-.005.473,0,.49-.006q.777-.009,1.555-.01,1.019,0,2.037-.016l.467,0a4.645,4.645,0,0,0,3.108-.828,2.989,2.989,0,0,0,.791-2.382,2.3,2.3,0,0,0-.727-1.452,4.632,4.632,0,0,0-3.275-.886l-.822-.015q-.644-.01-1.289-.018c-.416,0-.832-.013-1.248-.021l-.39,0c-.887-.021-.887-.021-1.305-.319a1.431,1.431,0,0,1-.238-.951l0-.351a1.225,1.225,0,0,1,.578-.84,2.584,2.584,0,0,1,.72-.065l.439-.005.473,0,.49-.006q.777-.009,1.555-.01,1.019,0,2.037-.016l.467,0a4.645,4.645,0,0,0,3.108-.828,2.989,2.989,0,0,0,.791-2.382,2.3,2.3,0,0,0-.727-1.452,4.632,4.632,0,0,0-3.275-.886l-.822-.015q-.644-.01-1.288-.018c-.416,0-.832-.013-1.248-.021l-.39,0c-.887-.021-.887-.021-1.305-.319a1.431,1.431,0,0,1-.238-.951l0-.351a1.225,1.225,0,0,1,.578-.84,2.584,2.584,0,0,1,.72-.065l.439-.005.474,0,.49-.006q.777-.009,1.555-.01,1.019,0,2.037-.016l.467,0a4.645,4.645,0,0,0,3.108-.828,2.989,2.989,0,0,0,.791-2.382,2.3,2.3,0,0,0-.727-1.452,3.864,3.864,0,0,0-2.718-.874l-.5,0h-.547l-.581,0-1.247,0-1.972-.009q-2.8-.016-5.607-.025-1.715-.005-3.43-.017l-1.309,0q-.913,0-1.826-.009l-.549,0-.5-.006-.436,0a1.173,1.173,0,0,1-.879-.575,3.829,3.829,0,0,1-.08-1.772l.072-.548.082-.589.164-1.252q.131-.98.264-1.96c.909-5.217.909-5.217-.619-10.1A4.7,4.7,0,0,0-141.228,2.511Zm-25.508,21.426V51.146h10.883V23.938Z" transform="translate(169 32.938)" fill="#cba6b3"/>
    <path id="Path_469" data-name="Path 469" d="M-50.978-.02l.45,0q.47,0,.94,0c.479,0,.958,0,1.437,0l.914,0,.434,0a2.452,2.452,0,0,1,1.528.371,2.329,2.329,0,0,1,.315,1.512c0,.213,0,.425-.007.644l-.017.671-.009.679q-.012.83-.033,1.659l.462-.011q.858-.017,1.715-.027.37-.005.739-.014c1.6-.037,2.827-.047,4.1,1.066l.278.335.286.334a5.084,5.084,0,0,1,.586,3.588A4.521,4.521,0,0,1-38.9,13.334a4.016,4.016,0,0,1-1.906.386l-.635.005h-.337q-.526,0-1.052.007-1.494.014-2.989.019-.916,0-1.832.014c-.343,0-.686,0-1.029,0A7,7,0,0,0-52,14.354a2.866,2.866,0,0,0-.9,2.458,2.329,2.329,0,0,0,.728,1.453,4.139,4.139,0,0,0,2.729.7c3.889.052,6.709.567,9.636,3.314,2.376,2.47,3.036,5.333,2.979,8.637A10.475,10.475,0,0,1-40,37.929a9.6,9.6,0,0,1-5.028,2.613l.011.458q.017.842.027,1.685.005.364.014.728c.008.35.012.7.015,1.049l.011.637a1.675,1.675,0,0,1-.326.954,3.212,3.212,0,0,1-1.962.362l-.45,0q-.47,0-.94,0c-.479,0-.958,0-1.437,0l-.914,0-.434,0a2.452,2.452,0,0,1-1.528-.371,2.329,2.329,0,0,1-.315-1.512l.007-.644.017-.671.009-.679q.012-.83.033-1.659l-.462.011q-.858.017-1.715.027-.37.005-.739.014c-1.6.037-2.827.047-4.1-1.066l-.278-.335-.286-.334a5.084,5.084,0,0,1-.586-3.588,4.522,4.522,0,0,1,2.041-2.551,4.016,4.016,0,0,1,1.906-.386l.635-.005h.337c.351,0,.7,0,1.052-.007q1.494-.014,2.989-.019.916,0,1.832-.014c.343,0,.686,0,1.029,0a7,7,0,0,0,3.315-.585,2.866,2.866,0,0,0,.9-2.458,2.329,2.329,0,0,0-.728-1.453,4.153,4.153,0,0,0-2.7-.71c-3.742-.069-6.7-.559-9.539-3.2a11.43,11.43,0,0,1-3.133-8.356,11.129,11.129,0,0,1,3.7-7.843,9.047,9.047,0,0,1,4.533-2.167l-.011-.458q-.017-.842-.027-1.685-.005-.364-.014-.728c-.008-.35-.012-.7-.015-1.049l-.011-.637A1.674,1.674,0,0,1-52.94.342,3.211,3.211,0,0,1-50.978-.02Zm.51,2.811-.013,1.061q-.011.509-.022,1.018-.007.354-.011.707c0,.339-.012.678-.02,1.017l-.011.618a1.038,1.038,0,0,1-.408.826,6.41,6.41,0,0,1-1.417.514,8.481,8.481,0,0,0-5.059,3.741,8.4,8.4,0,0,0-.765,6.43,8.566,8.566,0,0,0,4.379,5.059,11.566,11.566,0,0,0,4.335.808l.54.017q.533.014,1.066.018a5.694,5.694,0,0,1,4.209,1.633,6.76,6.76,0,0,1,1.19,5.1,4.955,4.955,0,0,1-2.2,3.188,5.058,5.058,0,0,1-2.81.769l-.65.005h-.343q-.536,0-1.073.007-1.524.014-3.048.019-.935,0-1.869.014-.355,0-.709,0c-.331,0-.662,0-.994.007l-.57,0a3.614,3.614,0,0,0-1.549.576,2.15,2.15,0,0,0-.17,1.36,2.074,2.074,0,0,0,1.19.85c.458.02.913.031,1.371.036l.825.015q.65.01,1.3.018c.418,0,.837.012,1.255.021l.393,0a2.518,2.518,0,0,1,1.313.271,2.738,2.738,0,0,1,.262,1.41l.018.646.012.675q.008.341.018.681.021.834.036,1.668h2.721l.013-1.061q.011-.509.022-1.018.007-.354.011-.707c0-.339.012-.678.02-1.017l.011-.618a1.038,1.038,0,0,1,.408-.826,6.422,6.422,0,0,1,1.417-.514A8.481,8.481,0,0,0-40.786,34.1a8.4,8.4,0,0,0,.765-6.43A8.565,8.565,0,0,0-44.4,22.612a11.563,11.563,0,0,0-4.335-.808l-.54-.017q-.533-.014-1.066-.018a5.693,5.693,0,0,1-4.209-1.633,6.76,6.76,0,0,1-1.19-5.1,4.955,4.955,0,0,1,2.2-3.188,5.06,5.06,0,0,1,2.81-.769l.65-.005h.343q.536,0,1.073-.007,1.524-.014,3.048-.019.935,0,1.869-.014l.709,0c.331,0,.662,0,.994-.007l.57,0a3.614,3.614,0,0,0,1.549-.576,2.15,2.15,0,0,0,.17-1.36,2.074,2.074,0,0,0-1.19-.85c-.458-.02-.913-.031-1.371-.036l-.825-.015q-.65-.011-1.3-.018c-.418,0-.837-.012-1.255-.021l-.393,0A2.518,2.518,0,0,1-47.4,7.87a2.738,2.738,0,0,1-.262-1.41l-.018-.646-.012-.675q-.008-.341-.018-.681-.021-.834-.036-1.668Z" transform="translate(105.788 5.11)" fill="#cba6b3"/>
    <path id="Path_470" data-name="Path 470" d="M-138.094-.094l.43,0,.9,0c.447,0,.894-.007,1.341-.012a26.9,26.9,0,0,1,5.681.563l.487.1c.372.082.739.173,1.107.272l.4.106a30.15,30.15,0,0,1,17.9,14.146c1.692,3.046,3.4,6.874,3.431,10.4,0,.208,0,.417.006.632s0,.454,0,.681c0,.173,0,.173,0,.35q.005.921.008,1.843,0,.753.01,1.507c.056,5.306.056,5.306-.741,7.712l-.146.492c-.125.411-.262.815-.407,1.219l-.152.428a29.035,29.035,0,0,1-1.846,3.983l-.3.556A30.142,30.142,0,0,1-120.9,55.888l-.3.176a28.969,28.969,0,0,1-7.761,3.066l-.444.111a4.842,4.842,0,0,1-2.383.048,1.5,1.5,0,0,1-.68-.68,2.869,2.869,0,0,1,0-1.36,2.547,2.547,0,0,1,1.618-.965l.556-.137.59-.141a24.134,24.134,0,0,0,5.059-1.818l.36-.177a23.065,23.065,0,0,0,4.571-2.884l.282-.23a27.213,27.213,0,0,0,9.886-17.778c.1-1.041.077-2.1.078-3.142,0-.13,0-.259,0-.392a22.417,22.417,0,0,0-.553-5.666l-.091-.362A27.537,27.537,0,0,0-122.5,6.663C-128.267,3.3-135.773,1.8-142.328,3.512l-.41.105A27.54,27.54,0,0,0-159.613,16.03a26.7,26.7,0,0,0-3.739,12.863,4.343,4.343,0,0,1-.572,2.167,2.587,2.587,0,0,1-1.7.17,1.5,1.5,0,0,1-.68-.68,9.488,9.488,0,0,1-.074-1.8c0-.175,0-.35.007-.53a29.3,29.3,0,0,1,8.57-19.44l.393-.426A28.086,28.086,0,0,1-138.094-.094Z" transform="translate(193.057 -0.203)" fill="#cba6b3"/>
    <path id="Path_471" data-name="Path 471" d="M-20.36-.026l.34-.005A1.654,1.654,0,0,1-19,.739,4.125,4.125,0,0,1-18.957,1.8l-.019.555L-19,2.78l.422-.024.555-.019.55-.024a1.3,1.3,0,0,1,.914.367,1.392,1.392,0,0,1,.364,1.06l.005.34a1.654,1.654,0,0,1-.771,1.02,4.126,4.126,0,0,1-1.063.043l-.555-.019L-19,5.5l.024.422.019.555.024.55a1.3,1.3,0,0,1-.367.914,1.392,1.392,0,0,1-1.06.364l-.34.005a1.654,1.654,0,0,1-1.02-.771,4.125,4.125,0,0,1-.043-1.063l.019-.555.024-.422-.422.024-.555.019-.55.024a1.3,1.3,0,0,1-.914-.367,1.392,1.392,0,0,1-.364-1.06l-.005-.34a1.654,1.654,0,0,1,.771-1.02A4.126,4.126,0,0,1-22.7,2.737l.555.019.422.024-.024-.422-.019-.555-.024-.55A1.3,1.3,0,0,1-21.42.338,1.392,1.392,0,0,1-20.36-.026Z" transform="translate(90.644 64.979)" fill="#cba6b3"/>
    <path id="Path_472" data-name="Path 472" d="M-20.36-.026l.34-.005A1.654,1.654,0,0,1-19,.739,4.125,4.125,0,0,1-18.957,1.8l-.019.555L-19,2.78l.422-.024.555-.019.55-.024a1.3,1.3,0,0,1,.914.367,1.392,1.392,0,0,1,.364,1.06l.005.34a1.654,1.654,0,0,1-.771,1.02,4.126,4.126,0,0,1-1.063.043l-.555-.019L-19,5.5l.024.422.019.555.024.55a1.3,1.3,0,0,1-.367.914,1.392,1.392,0,0,1-1.06.364l-.34.005a1.654,1.654,0,0,1-1.02-.771,4.125,4.125,0,0,1-.043-1.063l.019-.555.024-.422-.422.024-.555.019-.55.024a1.3,1.3,0,0,1-.914-.367,1.392,1.392,0,0,1-.364-1.06l-.005-.34a1.654,1.654,0,0,1,.771-1.02A4.126,4.126,0,0,1-22.7,2.737l.555.019.422.024-.024-.422-.019-.555-.024-.55A1.3,1.3,0,0,1-21.42.338,1.392,1.392,0,0,1-20.36-.026Z" transform="translate(40.309 14.643)" fill="#cba6b3"/>
  </g>
</svg>
