<svg xmlns="http://www.w3.org/2000/svg" width="103.471" height="80.379" viewBox="0 0 103.471 80.379">
  <g id="delivery" transform="translate(0.643 -56.539)">
    <path id="Path_464" data-name="Path 464" d="M-252-1.231c.6.3,1.184.625,1.766.966l.646.364q.644.364,1.286.733c.638.367,1.28.725,1.925,1.08q.644.355,1.285.714,1.925,1.073,3.855,2.136l.38.21q2.883,1.591,5.781,3.153,2.158,1.166,4.3,2.364,1.925,1.073,3.855,2.136l.378.209q2,1.1,4.009,2.189l.657.353q.6.324,1.211.646c3.124,1.674,3.124,1.674,3.8,2.689a11.771,11.771,0,0,1,.058,1.4c0,.142,0,.284,0,.43,0,.47,0,.939.005,1.409q0,.49,0,.98,0,1.028,0,2.055c0,.877.006,1.754.012,2.631q.007,1.012.005,2.024,0,.485.005.97c0,.453,0,.9,0,1.358,0,.257,0,.515,0,.78a2.545,2.545,0,0,1-.906,1.684,3.286,3.286,0,0,1-2.016.2,2.8,2.8,0,0,1-1.21-1.21c-.024-.323-.036-.647-.042-.971,0-.2-.008-.4-.012-.611-.005-.328-.005-.328-.01-.662,0-.223-.008-.446-.013-.676q-.02-1.072-.037-2.145-.013-.726-.026-1.451-.032-1.782-.062-3.563l-2.343,1.289-.793.436-1.156.637-.387.213q-.994.549-1.977,1.117l-.392.227-1.073.626c-.548.293-.548.293-.951.293,0,.2,0,.2,0,.413q.02,2.129.029,4.258,0,.794.012,1.589.011,1.142.014,2.285c0,.236.006.473.009.716,0,2.079,0,2.079-.673,3.037a5.74,5.74,0,0,1-1.134.706l-.754.4-.437.232c-.587.32-1.164.657-1.741,1l-1.34.776-.648.384a6.722,6.722,0,0,1-3.623,1.141,2.072,2.072,0,0,1-1.232-.974,3.273,3.273,0,0,1-.244-1.343l-.012-.538c0-.285,0-.285-.007-.575l-.012-.593q-.018-.937-.031-1.873-.012-.636-.024-1.271-.029-1.557-.052-3.114l-.355.2c-2.247,1.278-4.5,2.547-6.764,3.792l-.575.319-.531.29-.467.257a1.22,1.22,0,0,1-.783.18c.067,10.91.133,21.821.2,33.062,4.392-2.349,4.392-2.349,8.753-4.75q1.682-.937,3.368-1.865l.381-.21q2.549-1.407,5.113-2.788,2.322-1.251,4.612-2.558c2.643-1.506,5.327-2.933,8.013-4.359,0-.386,0-.386.006-.78q.012-1.434.036-2.868.009-.62.013-1.241c0-.6.014-1.19.024-1.785,0-.184,0-.369,0-.559a3.392,3.392,0,0,1,.505-2.054,2.346,2.346,0,0,1,1.8-.62,2.206,2.206,0,0,1,1.449.633,2.283,2.283,0,0,1,.465,1.657c0,.215.006.429.01.651s0,.464,0,.7,0,.477.005.722q0,.757.005,1.514c0,.772.012,1.544.023,2.316q0,.735,0,1.47c0,.231.008.462.012.7-.009,1.6-.009,1.6-.593,2.39l-.54.377-.355.248-.332.178-.395.215-.431.228-.975.529-.546.295c-.778.422-1.552.851-2.326,1.28l-.368.2-.373.206q-2.926,1.62-5.87,3.207-2.322,1.252-4.612,2.558c-1.835,1.045-3.69,2.049-5.554,3.04q-2.408,1.282-4.778,2.629-1.158.657-2.318,1.31l-.353.2q-1.138.641-2.283,1.27-.371.2-.741.413c-.345.194-.692.384-1.039.573l-.6.333a3.688,3.688,0,0,1-2.921-.028l-.672-.371-.37-.2c-.394-.214-.784-.433-1.175-.652l-.823-.45q-1-.545-1.986-1.1-.668-.372-1.339-.74-.835-.46-1.666-.927-1.9-1.065-3.812-2.115l-.38-.21q-2.883-1.591-5.781-3.153-2.158-1.166-4.3-2.364-1.735-.967-3.475-1.926l-.756-.418q-2.013-1.112-4.038-2.2l-.669-.359q-.62-.332-1.242-.662c-2.318-1.241-2.318-1.241-2.721-2.048-.017-.38-.022-.761-.02-1.142,0-.339,0-.339,0-.685s0-.355.005-.718c0-.238,0-.477,0-.723q0-.886.01-1.772l-.665.007q-3.106.031-6.211.045-1.6.008-3.193.024-1.541.017-3.082.02-.588,0-1.175.011c-.549.007-1.1.008-1.647.008l-.489.011a2.758,2.758,0,0,1-1.982-.6c-.5-.528-.5-.528-.658-1.032a3.072,3.072,0,0,1,.607-2.129,4.63,4.63,0,0,1,3.025-.615h.507l1.656,0h1.149q1.511,0,3.023,0l3.628,0q2.755,0,5.509.009V39.071l-2.7.035-2.134.017q-1.125.008-2.25.024-1.084.017-2.169.02-.413,0-.826.011c-2.155.041-2.155.041-2.813-.324a2.669,2.669,0,0,1-.881-1.749,2.937,2.937,0,0,1,.869-1.865,4.351,4.351,0,0,1,2.214-.449h.721l.773.006.8,0q1.044,0,2.087.01,1.066.006,2.132.008,2.09.006,4.179.02V27.782l-2.2.016q-3.6.025-7.206.036-2.185.008-4.369.024-1.9.015-3.809.019-1.008,0-2.016.012c-.751.007-1.5.008-2.252.008l-.675.011c-1.51-.01-1.51-.01-2.3-.611a2.615,2.615,0,0,1-.487-2.3c.117-.443.117-.443.6-.946a3.71,3.71,0,0,1,2.1-.528h.6l.662,0h.7l2.288,0h1.584l3.746,0,4.265,0q4.387,0,8.773.01c-.006-.212-.006-.212-.013-.428-.017-.643-.027-1.285-.037-1.928-.007-.222-.014-.445-.021-.674-.02-1.653-.02-1.653.443-2.445a8.15,8.15,0,0,1,1.621-1.06l.707-.372.753-.388.777-.408,1.16-.609q1.444-.755,2.863-1.553l.848-.474.458-.256q1.682-.938,3.368-1.865l.379-.209q2.91-1.606,5.837-3.181c1.01-.546,2.013-1.1,3.007-1.675,1.3-.751,2.621-1.459,3.944-2.167q2.919-1.563,5.793-3.2.525-.3,1.052-.595.546-.312,1.08-.644C-254.783-1.453-253.632-1.874-252-1.231Zm-2.674,4.712-.568.324-.612.352-1.259.718-.646.369c-.977.553-1.961,1.1-2.945,1.635l-.527.289-1.2.656a5.617,5.617,0,0,0,1.771,1.254l.709.376.375.2q.972.511,1.941,1.028l.387.205q1.443.766,2.868,1.563l.415.232.892.5q1.681.938,3.368,1.865l.38.21q2.883,1.591,5.781,3.153c1,.543,2.007,1.088,3,1.644q.421.234.845.463c.851.463,1.675.954,2.491,1.477,2.676,1.918,2.676,1.918,5.7,2.527a7.416,7.416,0,0,0,1.84-1.21,26.914,26.914,0,0,1,3.214-1.856c.659-.354,1.312-.719,1.966-1.083l.68-.378.485-.271a9.534,9.534,0,0,0-1.781-1.234l-.441-.227-.474-.24c-1.468-.758-2.913-1.549-4.347-2.369-1.736-.991-3.489-1.947-5.254-2.885q-2.875-1.529-5.7-3.142c-1.631-.927-3.282-1.813-4.939-2.693q-2.882-1.531-5.7-3.165l-.542-.311-.473-.274C-253.691,2.82-254.024,3.107-254.676,3.481Zm-13.943,7.669-.371.2q-.452.249-.9.5v.4l.675.349c1.806.939,3.592,1.905,5.36,2.914,1.736.991,3.489,1.947,5.254,2.885q2.875,1.529,5.7,3.142c1.631.927,3.283,1.813,4.939,2.693,2.247,1.2,4.466,2.437,6.673,3.7a2.749,2.749,0,0,0,1.616.6,12.968,12.968,0,0,0,1.571-.755l.595-.32c.5-.253.5-.253.678-.7l-.482-.255c-2.841-1.5-5.673-3.015-8.464-4.611-1.506-.858-3.031-1.679-4.561-2.493-1.727-.918-3.442-1.852-5.141-2.822-1.966-1.122-3.956-2.2-5.954-3.258-1.455-.775-2.9-1.562-4.322-2.4C-266.942,10.248-267.486,10.515-268.619,11.151Zm-7.547,4.17-.508.268c-1.408.748-2.8,1.52-4.192,2.3l-.6.339-.567.322-.5.284a13.151,13.151,0,0,0-1.263.882l.46.246c2.776,1.481,5.546,2.968,8.292,4.5q1.682.937,3.368,1.865l.38.21q2.883,1.591,5.781,3.153,1.719.93,3.428,1.878l.417.232.91.507q1.618.9,3.239,1.8l.792.44,1.117.619.656.364a9.023,9.023,0,0,0,1.6.713,10.982,10.982,0,0,0,1.537-.794l.958-.558.536-.316c1.048-.609,2.111-1.192,3.172-1.779q.9-.5,1.805-1l1.063-.591a5.617,5.617,0,0,0-1.771-1.255l-.709-.376-.375-.2q-.972-.511-1.941-1.028l-.387-.205q-1.443-.766-2.868-1.564l-.415-.232-.892-.5q-1.682-.937-3.368-1.865l-.38-.21q-2.883-1.591-5.781-3.153-2.149-1.161-4.28-2.353-1.877-1.046-3.758-2.085l-.808-.448-1.135-.628-.669-.371C-274.734,14.262-275.323,14.876-276.166,15.321Zm-10.055,7.824V56.409c3.711,2.1,3.711,2.1,7.459,4.133q2.876,1.527,5.7,3.142c1.513.86,3.044,1.685,4.581,2.5,1.735.923,3.459,1.861,5.166,2.835s3.45,1.934,5.191,2.873l.7.377.642.345.573.308c.38.233.38.233.632.218V39.878l-5.241-2.822q-1.552-.859-3.1-1.722-1.685-.938-3.375-1.869l-.38-.21q-2.883-1.591-5.781-3.153-2.152-1.163-4.285-2.357-1.835-1.023-3.674-2.038l-.779-.431-1.1-.61-.647-.358C-284.7,23.9-285.459,23.526-286.221,23.145Zm48.584,9.072v7.056a30.429,30.429,0,0,0,3.226-1.613V30.6C-235.613,30.6-236.576,31.652-237.636,32.217Z" transform="translate(319.575 58.081)" fill="#cba6b3"/>
    <path id="Path_465" data-name="Path 465" d="M-14.386-.051l.454-.013A4.072,4.072,0,0,1-11.437.6a2.8,2.8,0,0,1,.693,1.6,3.447,3.447,0,0,1-.895,1.827,6.173,6.173,0,0,1-2.671.277l-.634.023c-1.736.02-1.736.02-2.479-.544a2.356,2.356,0,0,1-.572-2.1A2.229,2.229,0,0,1-16.88.2,8.283,8.283,0,0,1-14.386-.051Z" transform="translate(17.375 107.434)" fill="#cba6b3"/>
    <path id="Path_466" data-name="Path 466" d="M-12.931-.729a2.671,2.671,0,0,1,1.1,1.613,2.61,2.61,0,0,1-.468,1.8,2.544,2.544,0,0,1-2.19.69,2.161,2.161,0,0,1-1.464-1.08,2.54,2.54,0,0,1-.2-1.613,3.273,3.273,0,0,1,1.273-1.5A3.576,3.576,0,0,1-12.931-.729Z" transform="translate(23.707 93.85)" fill="#cba6b3"/>
    <path id="Path_467" data-name="Path 467" d="M-13.058-.772A1.944,1.944,0,0,1-12.177.671a2.825,2.825,0,0,1-.453,1.984,2.385,2.385,0,0,1-2.033.664,2.311,2.311,0,0,1-1.419-.865,3.754,3.754,0,0,1-.2-2.218C-15.48-1.094-14.467-1.133-13.058-.772Z" transform="translate(114.955 97.521)" fill="#cba6b3"/>
  </g>
</svg>
