<svg xmlns="http://www.w3.org/2000/svg" width="31.013" height="24.651" viewBox="0 0 31.013 24.651">
  <g id="email-svgrepo-com" transform="translate(-2.25 -4.25)">
    <path id="Path_314" data-name="Path 314" d="M27.3,28.9H8.214A5.964,5.964,0,0,1,2.25,22.937V10.214A5.964,5.964,0,0,1,8.214,4.25H27.3a5.964,5.964,0,0,1,5.964,5.964V22.937A5.964,5.964,0,0,1,27.3,28.9ZM8.214,6.636a3.578,3.578,0,0,0-3.578,3.578V22.937a3.578,3.578,0,0,0,3.578,3.578H27.3a3.578,3.578,0,0,0,3.578-3.578V10.214A3.578,3.578,0,0,0,27.3,6.636Z" fill="#cba6b3"/>
    <path id="Path_315" data-name="Path 315" d="M17.741,17.505a1.069,1.069,0,0,1-.382,0l-14.314-4.9a1.193,1.193,0,0,1,.763-2.258l13.948,4.771L31.688,10.6a1.193,1.193,0,0,1,1.495.779,1.177,1.177,0,0,1-.763,1.495L18.106,17.521A1.356,1.356,0,0,1,17.741,17.505Z" transform="translate(0.016 3.571)" fill="#cba6b3"/>
  </g>
</svg>
