<svg id="Group_2737" data-name="Group 2737" xmlns="http://www.w3.org/2000/svg" width="25.78" height="25.78" viewBox="0 0 25.78 25.78">
  <path id="instagram-svgrepo-com" d="M8.576,1.078C9.95,1.015,10.389,1,13.89,1s3.94.015,5.315.078a9.46,9.46,0,0,1,3.129.6,6.317,6.317,0,0,1,2.283,1.487A6.318,6.318,0,0,1,26.1,5.447a9.461,9.461,0,0,1,.6,3.129c.063,1.375.078,1.814.078,5.315s-.015,3.94-.078,5.315a9.461,9.461,0,0,1-.6,3.129,6.592,6.592,0,0,1-3.77,3.77,9.461,9.461,0,0,1-3.129.6c-1.375.063-1.814.078-5.315.078s-3.94-.015-5.315-.078a9.461,9.461,0,0,1-3.129-.6,6.318,6.318,0,0,1-2.283-1.487,6.318,6.318,0,0,1-1.487-2.283,9.461,9.461,0,0,1-.6-3.129C1.015,17.83,1,17.391,1,13.89s.015-3.94.078-5.315a9.462,9.462,0,0,1,.6-3.129A6.319,6.319,0,0,1,3.163,3.163,6.318,6.318,0,0,1,5.447,1.677,9.46,9.46,0,0,1,8.576,1.078ZM19.1,3.4c-1.359-.062-1.767-.075-5.209-.075s-3.85.013-5.209.075a7.133,7.133,0,0,0-2.394.444,3.994,3.994,0,0,0-1.482.964,3.994,3.994,0,0,0-.964,1.482A7.134,7.134,0,0,0,3.4,8.681c-.062,1.359-.075,1.767-.075,5.209S3.336,17.74,3.4,19.1a7.135,7.135,0,0,0,.444,2.394,3.994,3.994,0,0,0,.964,1.482,3.994,3.994,0,0,0,1.482.964,7.133,7.133,0,0,0,2.394.444c1.359.062,1.767.075,5.209.075s3.85-.013,5.209-.075a7.132,7.132,0,0,0,2.393-.444,4.268,4.268,0,0,0,2.446-2.446,7.135,7.135,0,0,0,.444-2.394c.062-1.359.075-1.767.075-5.209s-.013-3.85-.075-5.209a7.135,7.135,0,0,0-.444-2.394,4,4,0,0,0-.964-1.482,3.994,3.994,0,0,0-1.482-.964A7.132,7.132,0,0,0,19.1,3.4ZM9.593,13.89a4.3,4.3,0,1,0,4.3-4.3A4.3,4.3,0,0,0,9.593,13.89Zm-2.323,0a6.619,6.619,0,1,1,6.619,6.619A6.619,6.619,0,0,1,7.271,13.89Zm13.5-5.334a1.547,1.547,0,1,0-1.547-1.547A1.547,1.547,0,0,0,20.771,8.556Z" transform="translate(-1 -1)" fill="#cba6b3" fill-rule="evenodd"/>
</svg>
