<svg xmlns="http://www.w3.org/2000/svg" width="593" height="97.104" viewBox="0 0 593 97.104">
  <g id="Group_3192" data-name="Group 3192" transform="translate(-952 -29.896)">
    <g id="Group_3191" data-name="Group 3191" transform="translate(2)">
      <rect id="Rectangle_263" data-name="Rectangle 263" width="68" height="36" transform="translate(950 91)" fill="#cba6b3"/>
      <g id="Group_2743" data-name="Group 2743" transform="translate(170 14)">
        <text id="Home_New_Shop_Over_ons_FAQ_Contact" data-name="Home          New          Shop          Over ons          FAQ          Contact" transform="translate(1373 101)" fill="#fff" font-size="20" font-family="Arapey-Regular, Arapey"><tspan x="-583" y="0">HOME</tspan><tspan y="0" xml:space="preserve" fill="#231f20">          NEW          SHOP          OVER ONS          FAQ          CONTACT</tspan></text>
      </g>
    </g>
    <g id="Group_2741" data-name="Group 2741" transform="translate(0 14)">
      <g id="Group_2738" data-name="Group 2738" transform="translate(101 -239)">
        <g id="Group_2736" data-name="Group 2736" transform="translate(1383 255)">
          <g id="Group_1193" data-name="Group 1193" transform="translate(0 0)">
            <g id="Group_1190" data-name="Group 1190" transform="translate(0 0)">
              <g id="Group_976" data-name="Group 976">
                <g id="instagram-sketched">
                  <path id="Path_312" data-name="Path 312" d="M18.2.082c-2.372-.111-8.246-.105-10.62,0A7.7,7.7,0,0,0,2.175,2.167C-.3,4.646.013,7.986.013,12.886c0,5.014-.279,8.277,2.162,10.719,2.489,2.488,5.878,2.162,10.719,2.162,4.967,0,6.681,0,8.438-.677,2.388-.927,4.19-3.061,4.366-6.9.112-2.373.105-8.246,0-10.62C25.486,3.049,23.057.305,18.2.082Zm3.754,21.883c-1.625,1.625-3.88,1.48-9.1,1.48-5.371,0-7.525.079-9.1-1.5-1.81-1.8-1.482-4.694-1.482-9.08,0-5.935-.609-10.209,5.347-10.514C9,2.306,9.4,2.29,12.848,2.29l.048.032c5.724,0,10.215-.6,10.485,5.356.061,1.359.075,1.767.075,5.206,0,5.308.1,7.475-1.5,9.08Z" transform="translate(0 -0.001)" fill="#cba6b3"/>
                </g>
                <g id="facebook1-f" transform="translate(9.667 6.445)">
                  <g id="Group_975" data-name="Group 975" transform="translate(0)">
                    <path id="Path_313" data-name="Path 313" d="M132.364,4.8V3.055a.873.873,0,0,1,.873-.873h.873V0h-1.745a2.618,2.618,0,0,0-2.618,2.618V4.8H128V6.982h1.745v6.982h2.618V6.982h1.745l.873-2.182Z" transform="translate(-128)" fill="#cba6b3"/>
                  </g>
                </g>
              </g>
            </g>
          </g>
        </g>
        <g id="Group_2737" data-name="Group 2737" transform="translate(1418 255)">
          <path id="instagram-svgrepo-com" d="M8.576,1.078C9.95,1.015,10.389,1,13.89,1s3.94.015,5.315.078a9.46,9.46,0,0,1,3.129.6,6.317,6.317,0,0,1,2.283,1.487A6.318,6.318,0,0,1,26.1,5.447a9.461,9.461,0,0,1,.6,3.129c.063,1.375.078,1.814.078,5.315s-.015,3.94-.078,5.315a9.461,9.461,0,0,1-.6,3.129,6.592,6.592,0,0,1-3.77,3.77,9.461,9.461,0,0,1-3.129.6c-1.375.063-1.814.078-5.315.078s-3.94-.015-5.315-.078a9.461,9.461,0,0,1-3.129-.6,6.318,6.318,0,0,1-2.283-1.487,6.318,6.318,0,0,1-1.487-2.283,9.461,9.461,0,0,1-.6-3.129C1.015,17.83,1,17.391,1,13.89s.015-3.94.078-5.315a9.462,9.462,0,0,1,.6-3.129A6.319,6.319,0,0,1,3.163,3.163,6.318,6.318,0,0,1,5.447,1.677,9.46,9.46,0,0,1,8.576,1.078ZM19.1,3.4c-1.359-.062-1.767-.075-5.209-.075s-3.85.013-5.209.075a7.133,7.133,0,0,0-2.394.444,3.994,3.994,0,0,0-1.482.964,3.994,3.994,0,0,0-.964,1.482A7.134,7.134,0,0,0,3.4,8.681c-.062,1.359-.075,1.767-.075,5.209S3.336,17.74,3.4,19.1a7.135,7.135,0,0,0,.444,2.394,3.994,3.994,0,0,0,.964,1.482,3.994,3.994,0,0,0,1.482.964,7.133,7.133,0,0,0,2.394.444c1.359.062,1.767.075,5.209.075s3.85-.013,5.209-.075a7.132,7.132,0,0,0,2.393-.444,4.268,4.268,0,0,0,2.446-2.446,7.135,7.135,0,0,0,.444-2.394c.062-1.359.075-1.767.075-5.209s-.013-3.85-.075-5.209a7.135,7.135,0,0,0-.444-2.394,4,4,0,0,0-.964-1.482,3.994,3.994,0,0,0-1.482-.964A7.132,7.132,0,0,0,19.1,3.4ZM9.593,13.89a4.3,4.3,0,1,0,4.3-4.3A4.3,4.3,0,0,0,9.593,13.89Zm-2.323,0a6.619,6.619,0,1,1,6.619,6.619A6.619,6.619,0,0,1,7.271,13.89Zm13.5-5.334a1.547,1.547,0,1,0-1.547-1.547A1.547,1.547,0,0,0,20.771,8.556Z" transform="translate(-1 -1)" fill="#cba6b3" fill-rule="evenodd"/>
        </g>
      </g>
      <g id="Group_2739" data-name="Group 2739" transform="translate(80 -198.5)">
        <text id="_0469_13_05_61" data-name="0469 13 05 61" transform="translate(997 234)" fill="#231f20" font-size="20" font-family="Arapey-Regular, Arapey"><tspan x="0" y="0">0469 13 05 61</tspan></text>
        <path id="phone-call-svgrepo-com" d="M17.337,7.19a6.487,6.487,0,0,1,5.125,5.125M17.337,2A11.677,11.677,0,0,1,27.651,12.3M23.11,26.651A20.11,20.11,0,0,1,3,6.541q0-.752.054-1.49a2.535,2.535,0,0,1,.21-1.1,1.376,1.376,0,0,1,.561-.521,2.836,2.836,0,0,1,1.2-.129H8.682a2.958,2.958,0,0,1,1.01.086,1.3,1.3,0,0,1,.514.36,2.958,2.958,0,0,1,.426.92l1.513,4.161a3.062,3.062,0,0,1,.295,1.131,1.3,1.3,0,0,1-.236.666,3.059,3.059,0,0,1-.941.693L9.487,12.379a15.7,15.7,0,0,0,7.785,7.785l1.065-1.776a3.058,3.058,0,0,1,.692-.941,1.3,1.3,0,0,1,.666-.236,3.062,3.062,0,0,1,1.131.295l4.161,1.513a2.959,2.959,0,0,1,.92.426,1.3,1.3,0,0,1,.36.514,2.956,2.956,0,0,1,.086,1.01v3.655a2.834,2.834,0,0,1-.129,1.2,1.375,1.375,0,0,1-.521.561,2.536,2.536,0,0,1-1.1.21Q23.862,26.651,23.11,26.651Z" transform="translate(957 213.5)" fill="none" stroke="#cba6b3" stroke-linecap="round" stroke-linejoin="round" stroke-width="2"/>
      </g>
      <g id="Group_2740" data-name="Group 2740" transform="translate(75 -199)">
        <text id="info_maison-ella.be" data-name="info@maison-ella.be" transform="translate(1199 234)" fill="#231f20" font-size="20" font-family="Arapey-Regular, Arapey"><tspan x="0" y="0">info@maison-ella.be</tspan></text>
        <g id="email-svgrepo-com" transform="translate(1153.75 211.75)">
          <path id="Path_314" data-name="Path 314" d="M27.3,28.9H8.214A5.964,5.964,0,0,1,2.25,22.937V10.214A5.964,5.964,0,0,1,8.214,4.25H27.3a5.964,5.964,0,0,1,5.964,5.964V22.937A5.964,5.964,0,0,1,27.3,28.9ZM8.214,6.636a3.578,3.578,0,0,0-3.578,3.578V22.937a3.578,3.578,0,0,0,3.578,3.578H27.3a3.578,3.578,0,0,0,3.578-3.578V10.214A3.578,3.578,0,0,0,27.3,6.636Z" fill="#cba6b3"/>
          <path id="Path_315" data-name="Path 315" d="M17.741,17.505a1.069,1.069,0,0,1-.382,0l-14.314-4.9a1.193,1.193,0,0,1,.763-2.258l13.948,4.771L31.688,10.6a1.193,1.193,0,0,1,1.495.779,1.177,1.177,0,0,1-.763,1.495L18.106,17.521A1.356,1.356,0,0,1,17.741,17.505Z" transform="translate(0.016 3.571)" fill="#cba6b3"/>
        </g>
      </g>
    </g>
  </g>
</svg>
