<svg id="Group_2736" data-name="Group 2736" xmlns="http://www.w3.org/2000/svg" width="25.78" height="25.78" viewBox="0 0 25.78 25.78">
  <g id="Group_1193" data-name="Group 1193" transform="translate(0 0)">
    <g id="Group_1190" data-name="Group 1190" transform="translate(0 0)">
      <g id="Group_976" data-name="Group 976">
        <g id="instagram-sketched">
          <path id="Path_312" data-name="Path 312" d="M18.2.082c-2.372-.111-8.246-.105-10.62,0A7.7,7.7,0,0,0,2.175,2.167C-.3,4.646.013,7.986.013,12.886c0,5.014-.279,8.277,2.162,10.719,2.489,2.488,5.878,2.162,10.719,2.162,4.967,0,6.681,0,8.438-.677,2.388-.927,4.19-3.061,4.366-6.9.112-2.373.105-8.246,0-10.62C25.486,3.049,23.057.305,18.2.082Zm3.754,21.883c-1.625,1.625-3.88,1.48-9.1,1.48-5.371,0-7.525.079-9.1-1.5-1.81-1.8-1.482-4.694-1.482-9.08,0-5.935-.609-10.209,5.347-10.514C9,2.306,9.4,2.29,12.848,2.29l.048.032c5.724,0,10.215-.6,10.485,5.356.061,1.359.075,1.767.075,5.206,0,5.308.1,7.475-1.5,9.08Z" transform="translate(0 -0.001)" fill="#cba6b3"/>
        </g>
        <g id="facebook1-f" transform="translate(9.667 6.445)">
          <g id="Group_975" data-name="Group 975" transform="translate(0)">
            <path id="Path_313" data-name="Path 313" d="M132.364,4.8V3.055a.873.873,0,0,1,.873-.873h.873V0h-1.745a2.618,2.618,0,0,0-2.618,2.618V4.8H128V6.982h1.745v6.982h2.618V6.982h1.745l.873-2.182Z" transform="translate(-128)" fill="#cba6b3"/>
          </g>
        </g>
      </g>
    </g>
  </g>
</svg>
