<svg xmlns="http://www.w3.org/2000/svg" width="62.497" height="62.497" viewBox="0 0 62.497 62.497">
  <g id="instagram-svgrepo-com" transform="translate(-1 -1)">
    <path id="Path_453" data-name="Path 453" d="M23.045,40.089A17.045,17.045,0,1,0,6,23.045,17.045,17.045,0,0,0,23.045,40.089Zm0-5.682A11.363,11.363,0,1,0,11.682,23.045,11.363,11.363,0,0,0,23.045,34.408Z" transform="translate(9.204 9.204)" fill="#fff" fill-rule="evenodd"/>
    <path id="Path_454" data-name="Path 454" d="M19.841,5a2.841,2.841,0,1,0,2.841,2.841A2.841,2.841,0,0,0,19.841,5Z" transform="translate(29.452 7.363)" fill="#fff"/>
    <path id="Path_455" data-name="Path 455" d="M2.858,10.306C1,13.953,1,18.725,1,28.271v7.954C1,45.771,1,50.544,2.858,54.19a17.043,17.043,0,0,0,7.449,7.449C13.953,63.5,18.725,63.5,28.271,63.5h7.954c9.546,0,14.319,0,17.965-1.858a17.043,17.043,0,0,0,7.449-7.449C63.5,50.544,63.5,45.771,63.5,36.225V28.271c0-9.546,0-14.319-1.858-17.965A17.043,17.043,0,0,0,54.19,2.858C50.544,1,45.771,1,36.225,1H28.271C18.725,1,13.953,1,10.306,2.858A17.044,17.044,0,0,0,2.858,10.306ZM36.225,6.682H28.271c-4.867,0-8.175,0-10.732.213A12.263,12.263,0,0,0,12.886,7.92,11.363,11.363,0,0,0,7.92,12.886a12.263,12.263,0,0,0-1.025,4.653C6.686,20.1,6.682,23.4,6.682,28.271v7.954c0,4.867,0,8.175.213,10.732A12.263,12.263,0,0,0,7.92,51.611a11.364,11.364,0,0,0,4.966,4.966A12.259,12.259,0,0,0,17.539,57.6c2.557.209,5.865.213,10.732.213h7.954c4.867,0,8.175,0,10.732-.213a12.259,12.259,0,0,0,4.653-1.025,11.364,11.364,0,0,0,4.966-4.966A12.259,12.259,0,0,0,57.6,46.957c.209-2.557.213-5.865.213-10.732V28.271c0-4.867,0-8.175-.213-10.732a12.259,12.259,0,0,0-1.025-4.653A11.364,11.364,0,0,0,51.611,7.92a12.263,12.263,0,0,0-4.653-1.025C44.4,6.686,41.092,6.682,36.225,6.682Z" fill="#fff" fill-rule="evenodd"/>
  </g>
</svg>
