<svg id="Layer_10" data-name="Layer 10" xmlns="http://www.w3.org/2000/svg" width="26.65" height="37.31" viewBox="0 0 26.65 37.31">
  <path id="Path_449" data-name="Path 449" d="M19.325,2A13.325,13.325,0,0,0,6,15.325C6,22.187,17.007,37.1,18.259,38.777a1.333,1.333,0,0,0,2.132,0C21.644,37.1,32.65,22.187,32.65,15.325A13.325,13.325,0,0,0,19.325,2Zm0,33.712C15.594,30.5,8.665,19.9,8.665,15.325a10.66,10.66,0,1,1,21.32,0C29.985,19.9,23.056,30.5,19.325,35.712Z" transform="translate(-6 -2)" fill="#cba6b3"/>
  <path id="Path_450" data-name="Path 450" d="M17.663,7a6.663,6.663,0,1,0,6.663,6.663A6.663,6.663,0,0,0,17.663,7Zm0,10.66a4,4,0,1,1,4-4A4,4,0,0,1,17.663,17.66Z" transform="translate(-4.337 -0.337)" fill="#cba6b3"/>
</svg>
