<svg xmlns="http://www.w3.org/2000/svg" width="41.734" height="28.642" viewBox="0 0 41.734 28.642">
  <g id="mail" transform="translate(0.25 0.25)">
    <g id="Group_2" data-name="Group 2">
      <path id="Path_5" data-name="Path 5" d="M37.61,61H3.624A3.457,3.457,0,0,0,0,64.247V85.895a3.457,3.457,0,0,0,3.624,3.247H37.61a3.457,3.457,0,0,0,3.624-3.247V64.247A3.457,3.457,0,0,0,37.61,61Zm-.5,2.165L20.694,77.873,4.136,63.165ZM2.416,85.447V64.685L14.052,75.021Zm1.708,1.531L15.767,76.545l4.08,3.624a1.31,1.31,0,0,0,1.7,0L25.529,76.6l11.58,10.376Zm34.693-1.531L27.238,75.071,38.818,64.7Z" transform="translate(0 -61)" fill="#cba6b3" stroke="#cba6b3" stroke-width="0.5"/>
    </g>
  </g>
</svg>
