<svg xmlns="http://www.w3.org/2000/svg" width="29.015" height="29.142" viewBox="0 0 29.015 29.142">
  <g id="phone-call1" transform="translate(0.499 0.5)">
    <g id="Group_1" data-name="Group 1" transform="translate(0)">
      <path id="Path_1" data-name="Path 1" d="M23.929,44.181A2.938,2.938,0,0,0,21.8,43.2a3.038,3.038,0,0,0-2.156.971L17.65,46.161c-.164-.088-.328-.17-.485-.252-.227-.113-.441-.221-.624-.334a21.652,21.652,0,0,1-5.188-4.728,12.774,12.774,0,0,1-1.7-2.686c.517-.473,1-.965,1.463-1.437.177-.177.353-.359.53-.536a2.892,2.892,0,0,0,0-4.363L9.921,30.1c-.2-.2-.4-.4-.586-.6-.378-.391-.775-.794-1.185-1.173a2.984,2.984,0,0,0-2.112-.927,3.088,3.088,0,0,0-2.143.927l-.013.013L1.738,30.508A4.612,4.612,0,0,0,.37,33.439a11.051,11.051,0,0,0,.807,4.678A27.144,27.144,0,0,0,6,46.161,29.667,29.667,0,0,0,15.879,53.9a15.392,15.392,0,0,0,5.548,1.639c.132.006.271.013.4.013a4.75,4.75,0,0,0,3.638-1.563c.006-.013.019-.019.025-.032a14.331,14.331,0,0,1,1.1-1.141c.271-.258.548-.53.82-.813a3.145,3.145,0,0,0,.952-2.181,3.03,3.03,0,0,0-.971-2.162Zm2.257,6.638c-.006,0-.006.006,0,0-.246.265-.5.5-.769.769A16.576,16.576,0,0,0,24.2,52.85a3.039,3.039,0,0,1-2.37,1c-.095,0-.2,0-.29-.006a13.674,13.674,0,0,1-4.917-1.475,28,28,0,0,1-9.305-7.288,25.594,25.594,0,0,1-4.539-7.559,9,9,0,0,1-.706-3.946,2.894,2.894,0,0,1,.87-1.872l2.15-2.15a1.433,1.433,0,0,1,.958-.448,1.348,1.348,0,0,1,.92.441l.019.019c.385.359.75.731,1.135,1.128.2.2.4.4.6.612l1.721,1.721a1.2,1.2,0,0,1,0,1.954c-.183.183-.359.366-.542.542-.53.542-1.034,1.046-1.582,1.538-.013.013-.025.019-.032.032a1.286,1.286,0,0,0-.328,1.431l.019.057a13.817,13.817,0,0,0,2.036,3.322l.006.006a23.139,23.139,0,0,0,5.6,5.094,8.609,8.609,0,0,0,.775.422c.227.113.441.221.624.334.025.013.05.032.076.044a1.367,1.367,0,0,0,.624.158,1.348,1.348,0,0,0,.958-.435l2.156-2.156a1.426,1.426,0,0,1,.952-.473,1.284,1.284,0,0,1,.908.46l.013.013,3.474,3.474A1.246,1.246,0,0,1,26.186,50.82Z" transform="translate(-0.344 -27.406)" fill="#cba6b3" stroke="#cba6b3" stroke-width="1"/>
    </g>
  </g>
</svg>
