<svg xmlns="http://www.w3.org/2000/svg" width="26.757" height="26.756" viewBox="0 0 26.757 26.756">
  <path id="phone-call-svgrepo-com" d="M17.337,7.19a6.487,6.487,0,0,1,5.125,5.125M17.337,2A11.677,11.677,0,0,1,27.651,12.3M23.11,26.651A20.11,20.11,0,0,1,3,6.541q0-.752.054-1.49a2.535,2.535,0,0,1,.21-1.1,1.376,1.376,0,0,1,.561-.521,2.836,2.836,0,0,1,1.2-.129H8.682a2.958,2.958,0,0,1,1.01.086,1.3,1.3,0,0,1,.514.36,2.958,2.958,0,0,1,.426.92l1.513,4.161a3.062,3.062,0,0,1,.295,1.131,1.3,1.3,0,0,1-.236.666,3.059,3.059,0,0,1-.941.693L9.487,12.379a15.7,15.7,0,0,0,7.785,7.785l1.065-1.776a3.058,3.058,0,0,1,.692-.941,1.3,1.3,0,0,1,.666-.236,3.062,3.062,0,0,1,1.131.295l4.161,1.513a2.959,2.959,0,0,1,.92.426,1.3,1.3,0,0,1,.36.514,2.956,2.956,0,0,1,.086,1.01v3.655a2.834,2.834,0,0,1-.129,1.2,1.375,1.375,0,0,1-.521.561,2.536,2.536,0,0,1-1.1.21Q23.862,26.651,23.11,26.651Z" transform="translate(-2 -0.896)" fill="none" stroke="#cba6b3" stroke-linecap="round" stroke-linejoin="round" stroke-width="2"/>
</svg>
