<svg xmlns="http://www.w3.org/2000/svg" width="72.351" height="80.379" viewBox="0 0 72.351 80.379">
  <g id="reliability" transform="translate(-32.107 504.9)">
    <path id="Path_456" data-name="Path 456" d="M48.428-498.129c-8.646,3.733-15.869,6.9-16.047,7.046-.291.291-.307.63-.242,16.289.065,13.639.1,16.225.323,17.388a38.985,38.985,0,0,0,3.749,11.6,39.766,39.766,0,0,0,24.725,20.523c3.264.889,3.442.9,5.284.517a42.52,42.52,0,0,0,12.136-4.961l1.277-.792,1.842.921a13.39,13.39,0,0,0,7.094,1.664,13.607,13.607,0,0,0,3.636-.339,16.043,16.043,0,0,0,10.439-8.08,14.479,14.479,0,0,0,1.794-8.112,14.249,14.249,0,0,0-1.487-6.238,16.991,16.991,0,0,0-5.284-6.189c-.921-.582-.937-.614-.84-1.164.065-.307.129-7.805.178-16.645l.065-16.1-.372-.323c-.469-.436-31.706-13.8-32.175-13.785C64.329-504.9,57.09-501.846,48.428-498.129ZM79.52-495.8l14.867,6.367v15.19c0,8.355-.048,15.239-.113,15.3a6.764,6.764,0,0,1-1.778-.307,15.679,15.679,0,0,0-7.353-.162c-.452.081-.533.048-.533-.194a3.591,3.591,0,0,0-.307-.986L84-461.268l.517-.549a3.786,3.786,0,0,0,1.147-3.1,3.134,3.134,0,0,0-.452-2.052,5.439,5.439,0,0,0-1.067-1.26l-.614-.5.323-.921a4.34,4.34,0,0,0-2.634-5.446c-.549-.194-1.681-.242-5.753-.242-2.8,0-5.074-.016-5.074-.048s.178-.6.4-1.26c1.164-3.41,1.147-6.884-.032-9.082a6.089,6.089,0,0,0-2.893-2.521c-1.745-.663-2.311-.339-2.731,1.551a28.348,28.348,0,0,1-1.535,5.381,10.342,10.342,0,0,1-3.668,3.523,10.39,10.39,0,0,0-3.523,3.491c-.921,1.293-1.778,2.036-2.376,2.036-.145,0-.323-.275-.42-.63a2.961,2.961,0,0,0-.824-1.2c-.792-.711-1.471-.808-4.993-.743-2.456.065-2.586.081-3.216.5-1.244.824-1.18.113-1.18,13.429v11.862l.356.533c.824,1.2.889,1.212,4.783,1.212,3.442,0,3.523,0,4.056-.388a3.213,3.213,0,0,0,1.147-2.23v-.517l1.826.663c3.878,1.39,4.428,1.454,11.393,1.535,3.394.048,6.173.129,6.173.178,0,.065-.113.679-.242,1.374a19.2,19.2,0,0,0-.065,5.446,18.861,18.861,0,0,0,1.907,5.365,21.023,21.023,0,0,0,1.713,2.424l1.05,1.228-1.26.743a37.253,37.253,0,0,1-9.777,3.975l-1.923.469-2.117-.549A36.254,36.254,0,0,1,48.816-434.3a46.962,46.962,0,0,1-6.5-6.561,38.051,38.051,0,0,1-7.272-16.855c-.259-1.568-.291-3.054-.291-16.71v-15.013L49.624-495.8c8.177-3.507,14.9-6.367,14.948-6.367S71.343-499.309,79.52-495.8ZM68.612-484.1c.953,2,.356,6.238-1.212,8.791-.776,1.244-.743,1.875.1,2.311.372.194,1.519.242,6.642.242,6.787,0,6.642-.016,7.159.97a1.365,1.365,0,0,1-.016,1.535c-.469.986-.808,1.05-5.688,1.05-4.848,0-4.929.016-5.139,1.083-.081.436-.016.6.388,1.018l.485.485h10.73l.549.549a1.632,1.632,0,0,1-.517,2.78c-.42.178-1.648.226-5.7.226-5.721,0-5.721,0-5.931,1.083-.081.436-.016.6.388,1.018l.485.485h4.719c5.252,0,5.494.048,5.915,1.05.339.824.291.97-.4,1.277a12.938,12.938,0,0,0-1.325.76l-.711.469H75.448c-2.23,0-4.185.048-4.331.1a1.92,1.92,0,0,0-.727,1.277,1.593,1.593,0,0,0,.469.743l.469.469h5.2l-.727.986a16.9,16.9,0,0,0-1.147,1.778l-.436.792H68.547c-7.482,0-8.743-.162-12.8-1.681l-1.923-.711-.048-8.258-.032-8.258h.388a5.173,5.173,0,0,0,2.78-1.18,11.1,11.1,0,0,0,1.5-1.794,9.4,9.4,0,0,1,3.41-3.281,12.708,12.708,0,0,0,3.733-3.41,19.608,19.608,0,0,0,1.681-4.929l.275-1.26.388.356A4.326,4.326,0,0,1,68.612-484.1ZM51.159-460.961v11.15H45.988v-22.3h5.171Zm40.723,4.218a13.428,13.428,0,0,1,9.389,8.872,14.025,14.025,0,0,1,.4,6.642,13.288,13.288,0,0,1-5.737,8.516,12.75,12.75,0,0,1-5.139,2.052,11.07,11.07,0,0,1-4.493,0,13.55,13.55,0,0,1-10.165-8.258,13.608,13.608,0,0,1-.275-8.953,13.214,13.214,0,0,1,6.5-7.741A13.216,13.216,0,0,1,91.882-456.743Z" transform="translate(0 0)" fill="#cba6b3"/>
    <path id="Path_457" data-name="Path 457" d="M333.944-174.722a35.714,35.714,0,0,0-3.781,3.539c-1.794,1.826-3.345,3.329-3.442,3.329a8.378,8.378,0,0,1-1.471-1.309,9.94,9.94,0,0,0-1.939-1.616,3.335,3.335,0,0,0-2.973.113,3.335,3.335,0,0,0-1.729,4.024c.21.695.614,1.164,3.281,3.83,2.747,2.763,3.119,3.07,3.878,3.3a3.162,3.162,0,0,0,2.731-.356c.372-.21,2.78-2.553,5.349-5.2,4.444-4.557,4.7-4.864,4.88-5.656a3.439,3.439,0,0,0-1.794-3.927A4.322,4.322,0,0,0,333.944-174.722Zm2.149,2.747c.242.372.242.436-.016.84-.162.259-2.262,2.44-4.686,4.88-3.911,3.927-4.444,4.4-4.783,4.3a42.231,42.231,0,0,1-5.494-5.4.847.847,0,0,1,.76-1.147c.323,0,.9.469,2.408,1.939,1.7,1.664,2.052,1.939,2.5,1.939.469,0,.9-.4,4.315-3.878,3.2-3.264,3.878-3.878,4.266-3.878A.818.818,0,0,1,336.093-171.975Z" transform="translate(-240.074 -276.623)" fill="#cba6b3"/>
  </g>
</svg>
