<svg xmlns="http://www.w3.org/2000/svg" width="72.268" height="80.379" viewBox="0 0 72.268 80.379">
  <g id="support" transform="translate(-25.405 0.253)">
    <path id="Path_461" data-name="Path 461" d="M-193.933,0h.363a19.514,19.514,0,0,1,5.063.51l.562.138a24.025,24.025,0,0,1,8.213,3.937l.387.28a22.571,22.571,0,0,1,5.254,5.674l.289.4a21.049,21.049,0,0,1,3.5,11.3c0,.132,0,.264,0,.4q.006.651.009,1.3c0,.149,0,.3,0,.452q.006,1.184.009,2.368,0,.976.013,1.952.012,1.183.013,2.366,0,.449.007.9c.035,2.971.035,2.971-.871,4.253l-.264.431a4.637,4.637,0,0,1-3.337,1.465l-.553,0-.577,0-.582,0-1.425-.008-.025.332a16.962,16.962,0,0,1-4.676,10.637l.141.41c.107.33.205.663.29,1,.407,1.563,1,3.273,2.453,4.144a31.24,31.24,0,0,0,5.808,1.905,21.688,21.688,0,0,1,12.9,10.136,23.184,23.184,0,0,1,3.222,11.19c.006.145.012.289.018.438s0,.281.005.425c0,.126.006.252.009.381a1.969,1.969,0,0,1-.875,1.155,5.72,5.72,0,0,1-1.2.1l-.363,0c-.4,0-.805,0-1.208,0l-.873,0c-.8,0-1.6,0-2.4,0-.863,0-1.726,0-2.589,0q-2.537.005-5.074,0-2.061,0-4.123,0h-1.783q-5.426,0-10.853,0-4.955-.006-9.91,0-5.565.006-11.131,0h-1.776q-2.06,0-4.119,0-2.509,0-5.018,0-1.281,0-2.561,0-1.172,0-2.343,0-.425,0-.849,0c-.384,0-.767,0-1.151,0l-.336.006a1.727,1.727,0,0,1-1.32-.48,1.372,1.372,0,0,1-.416-1.1c0-.131,0-.263,0-.4s.01-.279.015-.422.006-.291.009-.442a23.716,23.716,0,0,1,6.964-15.591l.305-.336c2.775-2.956,6.557-4.39,10.321-5.619l1.068-.356q.971-.323,1.944-.643l.414-.139a7.564,7.564,0,0,1,.9-.239,2.261,2.261,0,0,0,1.056-1.3l.167-.331q.173-.346.341-.695c.173-.356.351-.708.53-1.061q.167-.337.333-.675l.162-.32a1.461,1.461,0,0,0,.219-1.183c-.411-.531-.834-1.051-1.261-1.568a7.862,7.862,0,0,1-1.172-2.043,2.029,2.029,0,0,0-.6-.891,7.154,7.154,0,0,0-1.887-.144,3.8,3.8,0,0,1-2.188-.8l-.431-.264a4.624,4.624,0,0,1-1.457-2.711c.006-.174.006-.174.013-.352a3.736,3.736,0,0,0-.488-2.674,5.047,5.047,0,0,0-.837-.4,3.868,3.868,0,0,1-1.712-2.219,5.1,5.1,0,0,1-.163-1.663c0-.13,0-.261,0-.4,0-.429,0-.858,0-1.287q0-.452,0-.9,0-.947,0-1.894,0-1.2,0-2.406,0-.934,0-1.868,0-.443,0-.886a24.276,24.276,0,0,1,6.959-17.062c.4-.388.821-.745,1.254-1.1l.438-.361A23.381,23.381,0,0,1-193.933,0Zm-5.387,3.957-.346.1a20.409,20.409,0,0,0-8.272,4.915l-.391.361a19.055,19.055,0,0,0-4.937,8.258l-.181.587a15.889,15.889,0,0,0-.6,3.8h2.977l.108-1.322a15.8,15.8,0,0,1,5.22-10.431,15.906,15.906,0,0,1,9.88-3.8l.462,0,.968-.005q.487,0,.975-.01A16.473,16.473,0,0,1-181.3,10.849c3.1,3.025,4.333,6.9,4.7,11.126h2.977a20.068,20.068,0,0,0-6.513-13.461A21.224,21.224,0,0,0-188.978,3.8l-.6-.172A19.968,19.968,0,0,0-199.32,3.954Zm-5.377,9.755a13.143,13.143,0,0,0-3.085,6.856l.343-.349A14.821,14.821,0,0,1-197.2,15.744a3.383,3.383,0,0,1,2.578,1.53c.345.3.7.589,1.068.872l.284.221a23.889,23.889,0,0,0,2.88,1.884l.272.155c2.919,1.633,6.829,3.148,10.227,2.979a13.625,13.625,0,0,0-3.7-10.362c-3.013-2.877-6.9-3.664-10.925-3.608A13.986,13.986,0,0,0-204.7,13.709Zm-1.6,10.271q-.241.328-.478.66a6.967,6.967,0,0,1-.461.588,2.6,2.6,0,0,0-.56,2.241l.03.44c.039.53.087,1.059.137,1.588l.06.665c.245,2.689.548,5.367.978,8.032l.1.608a14.2,14.2,0,0,0,.588,2.448c.708.05,1.416.081,2.125.108l.606.044a5.16,5.16,0,0,0,1.656-.152,4.47,4.47,0,0,0,.866-1.3,4.076,4.076,0,0,1,2.425-1.681c.424-.035.831-.055,1.255-.058l.365,0,.763,0c.385,0,.769-.01,1.153-.017a5.584,5.584,0,0,1,4.113,1.23,5.588,5.588,0,0,1,1.319,4.343,4.137,4.137,0,0,1-1.6,2.66,6.322,6.322,0,0,1-4.066,1q-.386,0-.773.016a6.429,6.429,0,0,1-4.407-1.02,4.88,4.88,0,0,1-1.1-1.681c-.264-.382-.264-.382-.622-.418-.4-.015-.8-.006-1.2.013l-.424.011q-.518.014-1.035.038a13.1,13.1,0,0,0,7.855,5.984,12.894,12.894,0,0,0,9.539-1.753,14.847,14.847,0,0,0,5.955-10.029,75.51,75.51,0,0,0,1.254-11.909l-.367-.052c-6.074-.883-12.516-2.755-16.9-7.357-.285-.32-.285-.32-.806-.348C-201.458,19.127-204.265,21.267-206.293,23.98Zm-7.914,1.129q-.017,1.744-.026,3.488,0,.593-.01,1.186-.009.854-.01,1.707c0,.176,0,.352-.007.533a4.441,4.441,0,0,0,.523,2.487,3.475,3.475,0,0,0,2.314.48l.33,0,.8-.008-.038-.383q-.468-4.741-.745-9.489Zm37.609,0-.092,1.324c-.416,5.963-.416,5.963-.692,8.548a5.445,5.445,0,0,0,3.447-.47,5.346,5.346,0,0,0,.516-3.021c0-.274,0-.274,0-.554,0-.581-.008-1.162-.014-1.743q0-.593-.007-1.185-.008-1.449-.023-2.9Zm-34.475,13.006a4.082,4.082,0,0,0,.47,2.664,4.517,4.517,0,0,0,1.1.47,3.626,3.626,0,0,0-.069-1.92l-.07-.354q-.086-.431-.175-.861Zm13.006,3.6a2.059,2.059,0,0,0-.313,1.724,2.017,2.017,0,0,0,1.41.94c.512.038,1.024.036,1.538.039l.417.01a4.116,4.116,0,0,0,2.277-.519,2.059,2.059,0,0,0,.313-1.724,2.017,2.017,0,0,0-1.41-.94c-.512-.038-1.024-.036-1.538-.039l-.417-.01A4.115,4.115,0,0,0-198.066,41.72Zm12.29,10.724-.348.347-.366.368-.355.353c-.656.657-1.283,1.329-1.888,2.032-.326.372-.674.717-1.028,1.062-.661.653-1.279,1.33-1.88,2.037.611.732,1.246,1.425,1.923,2.1l.27.269.843.838.576.574,1.4,1.395a3.492,3.492,0,0,0,.889-1.308L-185.5,62l.246-.543L-185,60.9c.483-1.069.961-2.14,1.4-3.227l.14-.332a2.757,2.757,0,0,0-.052-2.4c-.223-.466-.457-.925-.7-1.383l-.247-.483q-.3-.587-.605-1.172C-185.362,51.905-185.577,52.245-185.776,52.444Zm-17.148.088c-.269.5-.532,1-.793,1.5l-.23.425a2.64,2.64,0,0,0-.387,2.307c.216.622.456,1.232.705,1.841l.21.519c.63,1.54,1.326,3.043,2.062,4.534.458.048.458.048.707-.181l.25-.254.278-.281.292-.3.3-.305c.582-.6,1.145-1.2,1.683-1.838.474-.54.991-1.038,1.5-1.539-.693-.829-1.423-1.6-2.186-2.37l-.352-.354-.732-.733q-.562-.563-1.122-1.129l-.712-.713-.339-.343L-202.1,53l-.276-.277C-202.6,52.5-202.6,52.5-202.924,52.532Zm6.268,1.1a35.072,35.072,0,0,0,2.507,2.664,3.415,3.415,0,0,0,1.342-1.077l.363-.41c.281-.332.547-.668.8-1.02l-.54.005C-193.682,53.8-195.16,53.764-196.656,53.629ZM-208.574,58.2l-.375.121-.4.134-.422.139-.887.294q-.664.221-1.331.435a21.334,21.334,0,0,0-8.581,4.912c-.173.167-.35.33-.529.491-3.138,2.906-4.978,7.454-5.486,11.627v.784h29.774a32.4,32.4,0,0,0-1.675-2.85l-.2-.3q-.518-.767-1.05-1.523a66.771,66.771,0,0,1-7.574-14.446A3.423,3.423,0,0,0-208.574,58.2Zm28.215-.181-.138.348a59.912,59.912,0,0,1-7.7,14.474c-.64.841-1.2,1.732-1.751,2.631l-.274.444a2.959,2.959,0,0,0-.636,1.221h29.774a17.416,17.416,0,0,0-.49-3.32l-.1-.382a20,20,0,0,0-9.195-12.116,32.522,32.522,0,0,0-4.839-1.972q-.648-.216-1.293-.438l-.833-.281-.385-.131A10.107,10.107,0,0,0-180.359,58.017Zm-14.193,3.658q-.245.246-.488.495l-.259.262c-.534.544-1.043,1.1-1.537,1.685-.517.577-1.076,1.113-1.63,1.654a1.968,1.968,0,0,0-.858,1.371,7.852,7.852,0,0,0,1,1.737l.255.377q.613.9,1.236,1.8l.428.619.211.3c.772,1.121,1.487,2.277,2.2,3.437.55-.184.582-.272.856-.758l.221-.383.236-.416a34.652,34.652,0,0,1,2.1-3.212c.6-.819,1.2-1.638,1.743-2.5l.3-.474c.217-.38.217-.38.152-.712a2.251,2.251,0,0,0-.623-.883l-.32-.323-.348-.343-.355-.356q-.372-.371-.746-.741-.574-.568-1.143-1.141l-.723-.72-.347-.347-.322-.317-.283-.281C-194.035,61.142-194.139,61.3-194.552,61.675Z" transform="translate(255.375 -0.25)" fill="#cba6b3"/>
    <path id="Path_462" data-name="Path 462" d="M-12.277-.234a3.934,3.934,0,0,1,.94.627l.252.19c1.6,1.269,3.615,3.611,3.9,5.715a1.972,1.972,0,0,1-.705,1.3,2.816,2.816,0,0,1-1.724.157A6.241,6.241,0,0,1-11.193,5.7a11.809,11.809,0,0,0-1.318-1.581c-.236-.279-.236-.279-.236-.592l-.277-.121A4.057,4.057,0,0,1-14.471,1.96a2.307,2.307,0,0,1,0-1.254A1.865,1.865,0,0,1-12.277-.234Z" transform="translate(97.165 65.052)" fill="#cba6b3"/>
    <path id="Path_463" data-name="Path 463" d="M-13.108-.459a1.529,1.529,0,0,1,.784.784,2.6,2.6,0,0,1-.294,2.057,2.6,2.6,0,0,1-2.057.294,1.529,1.529,0,0,1-.784-.784,2.6,2.6,0,0,1,.294-2.057A2.6,2.6,0,0,1-13.108-.459Z" transform="translate(92.669 62.3)" fill="#cba6b3"/>
  </g>
</svg>
