<svg xmlns="http://www.w3.org/2000/svg" width="26.483" height="27.142" viewBox="0 0 26.483 27.142">
  <g id="tax-free" transform="translate(-5.685 0.664)">
    <path id="Path_474" data-name="Path 474" d="M-291.072-41.278a9.621,9.621,0,0,1,2.485,3.346l.053.118a10.579,10.579,0,0,1,.687,2.262l.024.114a9.768,9.768,0,0,1-.288,4.381l.086,0a7.337,7.337,0,0,1,3.3,1.32,1.976,1.976,0,0,0,.339.013h.326l.352,0q.5,0,1,0l.613,0h.233l.326,0h.188a.688.688,0,0,1,.43.238.919.919,0,0,1,.061.454c0,.036,0,.072,0,.11q0,.183,0,.365,0,.131,0,.261,0,.356,0,.711,0,.222,0,.444,0,.695,0,1.389,0,.8,0,1.6,0,.62,0,1.239,0,.37,0,.741,0,.348,0,.7,0,.128,0,.256c0,.116,0,.233,0,.349,0,.065,0,.13,0,.2a.675.675,0,0,1-.238.435.984.984,0,0,1-.473.063h-.114l-.376,0h-.13l-.679,0q-.351,0-.7.006l-.539,0-.258,0c-.121,0-.241,0-.362,0h-.208a.629.629,0,0,1-.444-.3,1.317,1.317,0,0,1-.058-.533c0-.061,0-.123,0-.186s0-.128,0-.193,0-.129,0-.2q0-.239,0-.478a21.817,21.817,0,0,0-2.652.249l-.564.079-1.063.15-1.561.22-.232.033-.114.016-.667.094-.512.072-.183.026a11.537,11.537,0,0,1-5.628-.641l-.326-.113-.828-.288-.585-.2-.956-.334q-.825-.289-1.651-.573l-.395-.136-.58-.2c-2.393-.819-2.393-.819-2.865-1.677a2.523,2.523,0,0,1-.129-1.818,2.4,2.4,0,0,1,1.134-1.3h.106l-.048-.08a11.3,11.3,0,0,1-1.4-3.325l-.024-.1a9.3,9.3,0,0,1-.188-1.971c0-.036,0-.073,0-.11a10.214,10.214,0,0,1,.086-1.4l.019-.134a1.171,1.171,0,0,1,.322-.692.741.741,0,0,1,.489-.063.588.588,0,0,1,.37.37,3.529,3.529,0,0,1-.053.816,7.613,7.613,0,0,0-.07,1.147c0,.067,0,.134,0,.2a8.61,8.61,0,0,0,1.549,4.815l.083.135a1.146,1.146,0,0,0,.617.286l.346.1.2.055c.423.116.844.24,1.265.361l.824.237.338.1.17.049.691.2.669.192.318.091.442.127.13.038c.258.074.516.142.777.205l-.046-.088a2.546,2.546,0,0,1-.185-1.948,2.576,2.576,0,0,1,1.236-1.4,3.56,3.56,0,0,1,1.485-.232c.13,0,.261,0,.391,0q.555,0,1.11.005.342,0,.683,0l.257,0a3.709,3.709,0,0,0,1.687-.371,4.068,4.068,0,0,1,.64-.194l.124-.032a3.993,3.993,0,0,1,1.079-.133l.04-.2q.057-.285.118-.569l.028-.131.057-.259a8.246,8.246,0,0,0-.349-4.5l-.036-.1a8.363,8.363,0,0,0-2.5-3.6l-.151-.124a8.988,8.988,0,0,0-6.535-1.87,8.449,8.449,0,0,0-5.39,2.84.6.6,0,0,1-.4.264.81.81,0,0,1-.526-.159.668.668,0,0,1-.145-.5,1.623,1.623,0,0,1,.459-.659l.108-.119C-301.228-44.246-295.512-44.589-291.072-41.278Zm-.008,11.726a3.163,3.163,0,0,1-1.478.275c-.137,0-.274,0-.41,0-.29,0-.58,0-.87,0q-.506,0-1.013,0c-.134,0-.268,0-.4,0a1.839,1.839,0,0,0-1.342.4l-.083.1-.086.1a1.386,1.386,0,0,0-.178,1.008,1.4,1.4,0,0,0,.558.78,2.848,2.848,0,0,0,1.413.245h.407q.579,0,1.157,0l.71,0h.4l.246,0,.112,0a.553.553,0,0,1,.41.129.642.642,0,0,1,.111.58.332.332,0,0,1-.126.218,1.147,1.147,0,0,1-.5.117l-.145,0-.159,0-.168,0c-.521.011-1.042.018-1.563.023-.348,0-.7.008-1.043.017a14.748,14.748,0,0,1-5.316-.754c-.414-.138-.832-.257-1.252-.376l-.594-.172-.114-.033-.584-.171-.593-.172-.219-.064a1.963,1.963,0,0,0-1.462-.069,1.326,1.326,0,0,0-.621.8,1.556,1.556,0,0,0,.16.93,3.125,3.125,0,0,0,1.545.792l.3.1.654.223q.573.195,1.146.393l.1.035.412.142.728.25q.938.322,1.875.65l.158.055.71.251a10.519,10.519,0,0,0,5.256.526l.349-.048c.653-.09,1.3-.184,1.957-.277l1.213-.172.9-.13.576-.082.266-.039a20.257,20.257,0,0,1,2.16-.165v-5.711C-287.286-29.856-289.053-30.5-291.08-29.551Zm6.776.98v7.35h2.327v-7.35Z" transform="translate(313.009 46.609)" fill="#cba6b3"/>
    <path id="Path_475" data-name="Path 475" d="M-39.461-.044l.332,0A2.008,2.008,0,0,1-37.52.546a1.9,1.9,0,0,1,.543,1.366v.106q0,.174,0,.348c0,.04,0,.08,0,.121q0,.317,0,.634t0,.65q0,.252,0,.5,0,.12,0,.239a2.458,2.458,0,0,1-.5,1.749,2.183,2.183,0,0,1-1.675.658l-.178,0-.178,0a2.175,2.175,0,0,1-1.619-.6,1.819,1.819,0,0,1-.539-1.333V4.878q0-.185,0-.37V4.38q0-.336,0-.672t0-.691q0-.267,0-.534,0-.127,0-.255A2.326,2.326,0,0,1-41.171.56,2.164,2.164,0,0,1-39.461-.044Zm-.854,1.362a.923.923,0,0,0-.23.691v.1c0,.112,0,.225,0,.337q0,.118,0,.235,0,.246,0,.493c0,.21,0,.42,0,.63q0,.243,0,.486,0,.116,0,.232c0,.108,0,.217,0,.325v.187a.945.945,0,0,0,.331.576,1.374,1.374,0,0,0,.885.206l.144,0a1.352,1.352,0,0,0,.834-.243,1.122,1.122,0,0,0,.274-.8l0-.2q0-.109,0-.218V4.248q0-.292,0-.583t0-.6q0-.232,0-.464,0-.111,0-.221a1.446,1.446,0,0,0-.236-1.031,1.272,1.272,0,0,0-1-.334A1.45,1.45,0,0,0-40.315,1.317Z" transform="translate(50.726 7.965)" fill="#cba6b3"/>
    <path id="Path_476" data-name="Path 476" d="M-112.2-.161c.3.167.3.167.37.317a.745.745,0,0,1-.065.575l-.089.1-.1.111-.114.118-.119.124q-.2.21-.411.418l-.157.159q-.713.722-1.429,1.44-.528.531-1.054,1.063-.371.376-.744.75-.222.223-.443.447t-.417.419c-.075.075-.149.152-.224.228a1.065,1.065,0,0,1-.77.412.779.779,0,0,1-.42-.227.886.886,0,0,1-.053-.582.98.98,0,0,1,.154-.194l.1-.111q.319-.33.643-.655l.157-.158.423-.424.265-.265.924-.925.861-.862.74-.741.442-.442.415-.415.224-.225.135-.135.117-.117A.709.709,0,0,1-112.2-.161Z" transform="translate(133.709 8.363)" fill="#cba6b3"/>
    <path id="Path_477" data-name="Path 477" d="M-41.834-3.3a1.838,1.838,0,0,1,.78,1.091,1.75,1.75,0,0,1-.363,1.351,1.693,1.693,0,0,1-1.268.487,1.446,1.446,0,0,1-.993-.417l-.112-.132-.112-.116a1.584,1.584,0,0,1-.258-1.048A1.862,1.862,0,0,1-43.368-3.3,1.686,1.686,0,0,1-41.834-3.3ZM-43-2.141a.4.4,0,0,0-.053.317.662.662,0,0,0,.264.317.452.452,0,0,0,.37,0,.662.662,0,0,0,.264-.317.4.4,0,0,0-.053-.317.652.652,0,0,0-.4-.238A.652.652,0,0,0-43-2.141Z" transform="translate(63.189 15.526)" fill="#cba6b3"/>
    <path id="Path_478" data-name="Path 478" d="M-45.845-6.461a1.527,1.527,0,0,1,.552,1.183,1.591,1.591,0,0,1-.446,1.144,1.692,1.692,0,0,1-1.322.423,1.555,1.555,0,0,1-1.047-.607,1.814,1.814,0,0,1-.243-1.445,1.6,1.6,0,0,1,.722-.875A1.63,1.63,0,0,1-45.845-6.461Zm-1.322.9a.517.517,0,0,0-.106.476.715.715,0,0,0,.317.264.613.613,0,0,0,.443-.142.477.477,0,0,0,.086-.44.624.624,0,0,0-.34-.317A.57.57,0,0,0-47.167-5.562Z" transform="translate(63.392 14.822)" fill="#cba6b3"/>
    <path id="Path_479" data-name="Path 479" d="M-15.154-.853a9.335,9.335,0,0,1,.824.916c.065.077.131.153.2.228a.976.976,0,0,1,.3.76.7.7,0,0,1-.423.423.709.709,0,0,1-.582-.159,2.55,2.55,0,0,1-.215-.251l-.122-.155L-15.24.824c-.079-.1-.16-.2-.242-.292l-.174-.208-.085-.1A.94.94,0,0,1-16-.43a.677.677,0,0,1,.3-.42A.77.77,0,0,1-15.154-.853Z" transform="translate(23.659 2.022)" fill="#cba6b3"/>
    <path id="Path_480" data-name="Path 480" d="M-33.6-.937a.777.777,0,0,1,.3.492A3.176,3.176,0,0,1-34.213.879c-.075.087-.148.175-.221.264a.612.612,0,0,1-.483.266.862.862,0,0,1-.483-.231A.874.874,0,0,1-35.452.6a2.776,2.776,0,0,1,.37-.476l.235-.291.241-.291.117-.141.111-.13.1-.116A.65.65,0,0,1-33.6-.937Z" transform="translate(57.071 2.106)" fill="#cba6b3"/>
    <path id="Path_481" data-name="Path 481" d="M-10.056-.037l.132,0a.675.675,0,0,1,.4.3A2.339,2.339,0,0,1-9.494.7V.834q0,.134,0,.268c0,.137,0,.273,0,.409q0,.131,0,.261V1.9a.706.706,0,0,1-.242.586.8.8,0,0,1-.631-.013.53.53,0,0,1-.231-.445q0-.12,0-.241V1.654q0-.135,0-.27c0-.137,0-.275-.006-.412q0-.131,0-.263l0-.124A.636.636,0,0,1-10.459.1.513.513,0,0,1-10.056-.037Z" transform="translate(25.541 -0.625)" fill="#cba6b3"/>
    <path id="Path_482" data-name="Path 482" d="M-14.449-.416a1,1,0,0,1,.317.37A.78.78,0,0,1-14.3.562a.9.9,0,0,1-.466.132.746.746,0,0,1-.476-.37.733.733,0,0,1,.1-.549A.638.638,0,0,1-14.449-.416Z" transform="translate(21.896 8.512)" fill="#cba6b3"/>
  </g>
</svg>
