<svg id="WA_Logo" xmlns="http://www.w3.org/2000/svg" width="29.232" height="29.232" viewBox="0 0 29.232 29.232">
  <g id="Group_3175" data-name="Group 3175">
    <path id="Path_452" data-name="Path 452" d="M24.969,4.263A14.641,14.641,0,0,0,0,14.616a14.354,14.354,0,0,0,2.071,7.211L0,29.232l7.71-1.888a14.368,14.368,0,0,0,6.906,1.888A14.641,14.641,0,0,0,24.969,4.263ZM14.616,26.8a12.09,12.09,0,0,1-6.1-1.815l-.438-.268L3.5,25.919l1.218-4.47-.292-.463a12.015,12.015,0,0,1-1.985-6.37A12.18,12.18,0,1,1,14.616,26.8Zm6.7-9.2c-.365-.183-2.156-1.06-2.485-1.181s-.572-.183-.816.183-.938,1.181-1.157,1.425-.426.268-.792.085a9.81,9.81,0,0,1-2.923-1.8,10.648,10.648,0,0,1-2.022-2.521.534.534,0,0,1,.158-.743c.158-.158.365-.426.548-.633a2.381,2.381,0,0,0,.365-.609.677.677,0,0,0-.024-.633c-.1-.183-.828-1.973-1.133-2.7-.292-.706-.6-.609-.816-.621s-.451-.012-.694-.012a1.391,1.391,0,0,0-.974.451,4.132,4.132,0,0,0-1.267,3.045A7.074,7.074,0,0,0,8.77,15.091a16.227,16.227,0,0,0,6.212,5.493,21.121,21.121,0,0,0,2.071.767,4.9,4.9,0,0,0,2.29.146,3.777,3.777,0,0,0,2.46-1.73,2.948,2.948,0,0,0,.207-1.73C21.924,17.88,21.681,17.783,21.315,17.6Z" fill="#cba6b3" fill-rule="evenodd"/>
  </g>
</svg>
